PathFileType	4	(X/Y/Z)	OpenSim_Sub09_CSBaseline_Accel.trc
DataRate	CameraRate	NumFrames	NumMarkers	Units	OrigDataRate	OrigDataStartFrame	OrigNumFrames
100	100	17	8	m	100	1	5840
Frame#	Time	torso_imu_offset_imu	pelvis_imu_offset_imu	tibia_r_imu_offset_imu	femur_r_imu_offset_imu	tibia_l_imu_offset_imu	femur_l_imu_offset_imu	toes_r_imu_offset_imu	toes_l_imu_offset_imu
				X1	Y1	Z1	X2	Y2	Z2	X3	Y3	Z3	X4	Y4	Z4	X5	Y5	Z5	X6	Y6	Z6	X7	Y7	Z7	X8		Y8	Z8	

1	0	9.25643192	0.43801747	6.06983899	9.70956597	-0.55620842	2.00851215	9.56624869	2.07093577	1.78767748	9.78417492	0.22329545	1.42889416	9.63994922	-0.98925146	1.79351574	9.68950748	1.54049898	0.30326625	5.37696256	-1.55824884	8.26822600	4.95426395	2.21324921	10.92945221
2	0.01000000	9.27870287	0.41804373	6.02350357	9.68019209	-0.57014687	1.99717183	9.56560913	2.07493371	1.77341199	9.75264734	0.20319785	1.40451112	9.63802208	-0.86627841	1.83303192	9.72643222	1.50582077	0.29373232	5.40348220	-1.52116134	8.25188503	4.97290483	2.24059655	10.93395152
3	0.02000000	9.22984886	0.39004276	6.02084684	9.68537184	-0.61133219	2.06776789	9.54029909	2.06178665	1.77583397	9.72849297	0.22218097	1.41420250	9.67510688	-0.83408692	1.76494683	9.74783926	1.52581214	0.28336765	5.40005060	-1.52416995	8.28286160	4.95560174	2.24367830	10.93157555
4	0.03000000	9.19211622	0.38185724	5.99287800	9.68129644	-0.61933696	2.03226337	9.55810867	2.02471930	1.77258072	9.73568623	0.26374495	1.37440412	9.66405251	-0.92376026	1.73616789	9.73341782	1.56413687	0.32974096	5.39965471	-1.56810808	8.24454585	4.94282660	2.23589392	10.89207675
5	0.04000000	9.24227728	0.40745087	5.99220821	9.71293016	-0.64913783	2.03837338	9.57893040	1.96387668	1.77467839	9.75180476	0.25903389	1.41456307	9.68579557	-1.06437957	1.72780361	9.73042127	1.62036571	0.34205219	5.38450867	-1.53819733	8.23335691	4.93577664	2.24255231	10.93674938
6	0.05000000	9.22717992	0.42662895	6.00074629	9.71674223	-0.63148311	2.06669763	9.62117976	1.92010838	1.80295433	9.73879083	0.26911850	1.45405796	9.67509443	-1.13156728	1.81478483	9.73130407	1.62859456	0.33554649	5.42151042	-1.57010943	8.24953737	4.93830627	2.22424658	10.95073848
7	0.06000000	9.28315028	0.44607719	6.05939825	9.73216628	-0.58347439	2.07104221	9.61352259	1.73705303	1.75147614	9.81216523	0.31985187	1.47080385	9.62593048	-1.05591355	1.87816130	9.72687753	1.64346569	0.35787916	5.38148017	-1.57917871	8.28925693	4.93967802	2.19790608	10.95613086
8	0.07000000	9.21773983	0.45290826	6.09193373	9.71753627	-0.58494577	2.09364167	9.65699298	1.65392408	1.74037069	9.81721361	0.29764444	1.41908661	9.63533568	-0.97411318	1.89042346	9.69691826	1.66232325	0.36986338	5.39576148	-1.56925403	8.26708015	4.96361886	2.19102448	10.91723823
9	0.08000000	9.20193221	0.44683791	6.07883866	9.72649665	-0.56199771	2.04226848	9.65689766	1.69136790	1.73798114	9.79612848	0.28029024	1.37905694	9.67459405	-0.90909426	1.86311039	9.67671354	1.63890362	0.33997889	5.38538818	-1.55496973	8.26192983	4.95395310	2.21820149	10.92657145
10	0.09000000	9.19720100	0.45098374	6.14531550	9.70899451	-0.50462138	2.11292154	9.60280678	1.83652874	1.73892808	9.76655396	0.23888303	1.36239158	9.67524932	-0.88059059	1.88641270	9.68709869	1.61242364	0.37366958	5.36856501	-1.57166640	8.27204340	4.92998133	2.19183650	10.92481614
11	0.10000000	9.22308106	0.44830372	6.13019541	9.66540170	-0.51583364	2.10944003	9.63368072	1.95780005	1.76835860	9.78244620	0.23127978	1.36948725	9.61135078	-0.95660108	1.87586429	9.72068801	1.60186328	0.38634329	5.36232503	-1.57862276	8.24762485	4.95471672	2.21590570	10.91342758
12	0.11000000	9.26975848	0.40212217	6.12967904	9.65902884	-0.52171291	2.09844214	9.68859870	2.03558104	1.76195214	9.78782979	0.20893944	1.37077609	9.63456707	-0.94636939	1.84193540	9.72804312	1.59169658	0.32622998	5.36466766	-1.57127513	8.26590149	4.94520051	2.19523625	10.89993408
13	0.12000000	9.21246497	0.37743807	6.14387269	9.66584919	-0.50236975	2.11685113	9.66835821	2.10675359	1.68361474	9.77306362	0.22999738	1.35717215	9.67744340	-0.93214801	1.82428309	9.75246450	1.54312299	0.38094805	5.38193869	-1.59383723	8.26640464	4.94291612	2.20963187	10.92744133
14	0.13000000	9.23115299	0.34976430	6.07137619	9.71010574	-0.54762692	2.15066491	9.58833831	2.08855633	1.69055742	9.74714040	0.27007797	1.30491625	9.67204888	-0.92676514	1.85791844	9.77963188	1.55411571	0.37251708	5.41380903	-1.49778432	8.27859482	4.93822144	2.24682587	10.93113462
15	0.14000000	9.26274410	0.32973239	6.05960964	9.73821446	-0.54945654	2.11257341	9.58497185	2.06538751	1.79229918	9.68643673	0.31609601	1.32932362	9.63951073	-0.92882554	1.79985877	9.75046161	1.51633748	0.36623722	5.40907601	-1.53022225	8.26513251	4.94495219	2.19887579	10.93608310
16	0.15000000	9.28831142	0.30139173	6.02332622	9.78189670	-0.50993055	2.10090885	9.57082354	2.06338094	1.74933331	9.69828233	0.34048653	1.42744649	9.64279815	-0.99654035	1.77084730	9.75083410	1.54316639	0.34903491	5.43674906	-1.53288308	8.24784549	4.94671780	2.23800427	10.91750405
17	0.16000000	9.29024098	0.22959045	6.00196759	9.81583113	-0.54061836	2.07402252	9.58304790	2.09363239	1.69625395	9.75765079	0.42562175	1.45467314	9.65523098	-1.01174886	1.78508915	9.74355788	1.52898235	0.32452277	5.43224511	-1.56556749	8.28296724	4.96661228	2.20506695	10.89160061
